<svg width="625" height="625" viewBox="0 0 625 625" fill="none" xmlns="http://www.w3.org/2000/svg">
<ellipse cx="312.367" cy="312.366" rx="312.367" ry="312.366" transform="matrix(1 0 0 -1 0 624.732)" fill="#20446E"/>
<path d="M219.793 323.079H209.201V141.432H219.793V323.079Z" fill="white"/>
<path d="M247.638 485.823C298.185 485.666 339.211 474.964 366.34 454.85C391.011 436.562 404.054 410.995 404.054 380.915C404.054 316.627 347.063 278.436 247.637 276.032L247.638 485.823ZM236.159 497.306V264.304L246.725 264.528C399.084 267.78 415.532 347.006 415.532 380.917C415.532 414.777 400.886 443.532 373.176 464.074C343.432 486.126 300.814 497.306 246.505 497.306H236.159Z" fill="white"/>
<path d="M247.637 348.962C294.943 348.794 333.343 338.1 358.739 318.011C381.859 299.721 394.082 274.147 394.082 244.054C394.082 179.785 340.722 141.597 247.638 139.172L247.637 348.962ZM236.159 360.446V127.428L246.741 127.668C298.557 128.846 338.779 140.382 366.295 161.956C391.984 182.092 405.562 210.481 405.562 244.055C405.562 277.783 391.834 306.47 365.862 327.015C337.821 349.199 297.662 360.446 246.503 360.446H236.159Z" fill="white"/>
</svg>
