<svg width="1529" height="558" viewBox="0 0 1529 558" fill="none" xmlns="http://www.w3.org/2000/svg">
<path d="M805.376 502.542V425.452H814.711V459.781H855.817V425.452H865.152V502.542H855.817V468.062H814.711V502.542H805.376ZM954.187 463.997C954.187 472.128 952.719 479.154 949.782 485.077C946.846 490.999 942.819 495.566 937.699 498.778C932.58 501.99 926.733 503.596 920.158 503.596C913.583 503.596 907.736 501.99 902.617 498.778C897.498 495.566 893.47 490.999 890.534 485.077C887.598 479.154 886.13 472.128 886.13 463.997C886.13 455.866 887.598 448.84 890.534 442.917C893.47 436.995 897.498 432.428 902.617 429.216C907.736 426.004 913.583 424.398 920.158 424.398C926.733 424.398 932.58 426.004 937.699 429.216C942.819 432.428 946.846 436.995 949.782 442.917C952.719 448.84 954.187 455.866 954.187 463.997ZM945.152 463.997C945.152 457.322 944.036 451.688 941.802 447.096C939.594 442.503 936.595 439.028 932.806 436.669C929.042 434.31 924.826 433.131 920.158 433.131C915.491 433.131 911.262 434.31 907.473 436.669C903.709 439.028 900.71 442.503 898.476 447.096C896.268 451.688 895.164 457.322 895.164 463.997C895.164 470.672 896.268 476.306 898.476 480.898C900.71 485.491 903.709 488.966 907.473 491.325C911.262 493.684 915.491 494.864 920.158 494.864C924.826 494.864 929.042 493.684 932.806 491.325C936.595 488.966 939.594 485.491 941.802 480.898C944.036 476.306 945.152 470.672 945.152 463.997ZM1017.34 444.724C1016.89 440.91 1015.06 437.949 1011.85 435.841C1008.63 433.733 1004.69 432.679 1000.03 432.679C996.614 432.679 993.628 433.231 991.068 434.335C988.534 435.439 986.551 436.957 985.121 438.89C983.715 440.822 983.013 443.018 983.013 445.477C983.013 447.535 983.502 449.304 984.481 450.785C985.485 452.24 986.764 453.457 988.32 454.436C989.876 455.39 991.507 456.18 993.214 456.807C994.92 457.41 996.489 457.899 997.919 458.275L1005.75 460.383C1007.76 460.91 1009.99 461.638 1012.45 462.567C1014.93 463.495 1017.3 464.762 1019.56 466.368C1021.85 467.949 1023.73 469.982 1025.21 472.466C1026.69 474.951 1027.43 478 1027.43 481.614C1027.43 485.779 1026.34 489.543 1024.16 492.906C1022 496.269 1018.84 498.941 1014.67 500.924C1010.53 502.906 1005.5 503.898 999.575 503.898C994.054 503.898 989.274 503.007 985.234 501.225C981.219 499.443 978.057 496.959 975.748 493.772C973.464 490.585 972.172 486.883 971.871 482.667H981.507C981.758 485.578 982.737 487.988 984.443 489.895C986.175 491.777 988.358 493.182 990.993 494.111C993.653 495.014 996.514 495.466 999.575 495.466C1003.14 495.466 1006.34 494.889 1009.17 493.734C1012.01 492.555 1014.26 490.924 1015.91 488.841C1017.57 486.733 1018.4 484.274 1018.4 481.463C1018.4 478.903 1017.68 476.82 1016.25 475.214C1014.82 473.608 1012.94 472.303 1010.6 471.3C1008.27 470.296 1005.75 469.417 1003.04 468.665L993.553 465.954C987.53 464.223 982.762 461.751 979.249 458.539C975.735 455.327 973.979 451.123 973.979 445.929C973.979 441.613 975.146 437.848 977.479 434.636C979.838 431.399 983 428.89 986.965 427.108C990.955 425.301 995.41 424.398 1000.33 424.398C1005.3 424.398 1009.71 425.288 1013.58 427.07C1017.44 428.827 1020.5 431.236 1022.76 434.297C1025.05 437.359 1026.25 440.835 1026.38 444.724H1017.34ZM1048.08 502.542V425.452H1074.13C1080.18 425.452 1085.12 426.543 1088.96 428.726C1092.82 430.885 1095.68 433.808 1097.54 437.497C1099.4 441.186 1100.33 445.301 1100.33 449.844C1100.33 454.386 1099.4 458.514 1097.54 462.228C1095.71 465.942 1092.87 468.903 1089.03 471.111C1085.19 473.295 1080.28 474.386 1074.28 474.386H1055.61V466.105H1073.98C1078.12 466.105 1081.44 465.39 1083.95 463.959C1086.46 462.529 1088.28 460.597 1089.41 458.163C1090.56 455.703 1091.14 452.93 1091.14 449.844C1091.14 446.757 1090.56 443.997 1089.41 441.562C1088.28 439.128 1086.45 437.221 1083.91 435.841C1081.38 434.435 1078.02 433.733 1073.83 433.733H1057.41V502.542H1048.08ZM1130 425.452V502.542H1120.66V425.452H1130ZM1149.8 433.733V425.452H1207.62V433.733H1183.38V502.542H1174.04V433.733H1149.8ZM1221.48 502.542H1211.7L1240 425.452H1249.64L1277.95 502.542H1268.16L1245.12 437.648H1244.52L1221.48 502.542ZM1225.1 472.429H1264.55V480.71H1225.1V472.429ZM1295.25 502.542V425.452H1304.59V494.261H1340.42V502.542H1295.25ZM1369.51 425.452V502.542H1360.18V425.452H1369.51ZM1389.32 433.733V425.452H1447.13V433.733H1422.89V502.542H1413.56V433.733H1389.32ZM1460.22 425.452H1470.91L1492.29 461.437H1493.19L1514.57 425.452H1525.26L1497.41 470.773V502.542H1488.07V470.773L1460.22 425.452Z" fill="#FAF9F6"/>
<path d="M0 252.358H14.5839V18.064H0V252.358Z" fill="#FAF9F6"/>
<path d="M203.609 422.322C168.613 448.266 115.696 462.068 50.5025 462.271V300.547C115.785 300.333 167.089 285.837 202.99 257.437C208.313 253.226 213.234 248.746 217.751 244.021C240.338 265.674 252.25 293.587 252.25 326.958C252.25 365.755 235.43 398.731 203.607 422.322M50.5025 191.674C119.117 193.333 172.054 208.211 206.457 234.385C202.569 238.406 198.352 242.225 193.804 245.823C161.049 271.734 111.518 285.526 50.5025 285.743V191.674ZM239.39 150.43C239.39 177.94 231.463 202.515 216.234 222.899C184.329 198.027 132.908 178.804 50.5025 176.872V15.1506C170.564 18.2773 239.39 67.5332 239.39 150.43ZM227.481 232.651C245.054 209.59 254.197 181.689 254.197 150.432C254.197 107.125 236.683 70.5091 203.549 44.5359C168.06 16.7119 116.178 1.83199 49.3465 0.309325L35.9599 0V176.554L35.6946 176.549L35.6959 477.082H49.0425C119.09 477.082 174.061 462.66 212.426 434.215C248.166 407.722 267.058 370.632 267.058 326.961C267.058 304.059 261.225 265.142 227.481 232.651Z" fill="#FAF9F6"/>
<path d="M629.619 370.571C626.109 385.131 617.039 394.54 606.515 394.54C596.664 394.54 588.033 385.778 584.528 372.247L533.756 161.346C527.469 136.222 509.512 127.308 496.044 127.308C481.666 127.308 464.063 136.25 457.783 161.357L406.461 372.221C402.947 385.778 394.313 394.54 384.467 394.54C373.941 394.54 364.872 385.131 361.367 370.589L306.984 132.328H292.786L347.315 373.485C352.168 394.518 366.751 408.108 384.467 408.108C398.519 408.108 415.109 397.923 420.497 375.175L471.825 164.289C475.254 150.068 484.541 140.876 495.486 140.876C504.732 140.876 515.808 148.117 519.705 164.289L570.474 375.163C575.289 395.487 589.1 408.11 606.515 408.11C621.127 408.11 638.282 397.4 643.659 373.476L698.191 132.328H683.993L629.619 370.571Z" fill="#FAF9F6"/>
<path d="M859.801 393.427C790.786 393.427 734.64 336.778 734.64 267.147C734.64 197.828 790.786 141.43 859.799 141.43C928.51 141.43 984.41 197.828 984.41 267.147C984.41 336.778 928.51 393.427 859.801 393.427ZM859.801 127.308C782.693 127.308 719.961 190.04 719.961 267.147C719.961 344.566 782.693 407.55 859.801 407.55C936.6 407.55 999.08 344.566 999.08 267.147C999.08 188.732 937.903 127.308 859.801 127.308Z" fill="#FAF9F6"/>
<path d="M1135.27 259.006C1095.86 250.95 1058.63 243.34 1058.63 202.432C1058.63 166.477 1095.22 144.218 1129.12 144.218C1163.28 144.218 1189.46 158.621 1204.82 185.872L1205.58 187.212L1218.14 179.524L1217.45 178.276C1200.07 147.208 1168.7 130.096 1129.12 130.096C1075.81 130.096 1043.95 166.876 1043.95 202.432C1043.95 255.178 1088.19 264.111 1130.97 272.751C1171.14 280.862 1209.09 288.523 1209.09 331.311C1209.09 361.623 1182.39 392.311 1131.35 392.311C1093.34 392.311 1064.28 374.651 1047.31 341.239L1046.59 339.809L1034.02 347.486L1034.62 348.699C1052.69 385.392 1087.95 406.435 1131.35 406.435C1192.02 406.435 1223.76 368.645 1223.76 331.311C1223.76 277.095 1178.78 267.902 1135.27 259.006Z" fill="#FAF9F6"/>
<path d="M1406.58 127.308C1355.11 127.308 1310.63 157.544 1293.13 203.445V9.58932H1279V405.735H1293.13V264.359C1293.13 194.28 1341.91 141.43 1406.58 141.43C1456.08 141.43 1513.88 172.75 1513.88 261.013V407.359H1528.01V261.013C1528.01 181.04 1479.21 127.308 1406.58 127.308Z" fill="#FAF9F6"/>
</svg>
