<svg width="1529" height="558" viewBox="0 0 1529 558" fill="none" xmlns="http://www.w3.org/2000/svg">
<path d="M971.892 502.542V425.452H981.227V463.696H982.13L1016.76 425.452H1028.96L996.585 460.233L1028.96 502.542H1017.66L990.863 466.707L981.227 477.548V502.542H971.892ZM1055.68 425.452V502.542H1046.34V425.452H1055.68ZM1075.48 433.733V425.452H1133.29V433.733H1109.05V502.542H1099.72V433.733H1075.48ZM1211.83 449.542H1202.49C1201.94 446.857 1200.97 444.498 1199.59 442.466C1198.24 440.433 1196.58 438.727 1194.63 437.346C1192.69 435.941 1190.55 434.887 1188.19 434.185C1185.83 433.482 1183.37 433.131 1180.81 433.131C1176.14 433.131 1171.91 434.31 1168.13 436.669C1164.36 439.028 1161.36 442.503 1159.13 447.096C1156.92 451.688 1155.82 457.322 1155.82 463.997C1155.82 470.672 1156.92 476.306 1159.13 480.898C1161.36 485.491 1164.36 488.966 1168.13 491.325C1171.91 493.684 1176.14 494.864 1180.81 494.864C1183.37 494.864 1185.83 494.512 1188.19 493.81C1190.55 493.107 1192.69 492.065 1194.63 490.685C1196.58 489.28 1198.24 487.561 1199.59 485.528C1200.97 483.471 1201.94 481.112 1202.49 478.452H1211.83C1211.12 482.391 1209.85 485.917 1207.99 489.029C1206.13 492.141 1203.82 494.788 1201.06 496.971C1198.3 499.13 1195.2 500.773 1191.76 501.903C1188.35 503.032 1184.7 503.596 1180.81 503.596C1174.24 503.596 1168.39 501.99 1163.27 498.778C1158.15 495.566 1154.12 490.999 1151.19 485.077C1148.25 479.154 1146.78 472.128 1146.78 463.997C1146.78 455.866 1148.25 448.84 1151.19 442.917C1154.12 436.995 1158.15 432.428 1163.27 429.216C1168.39 426.004 1174.24 424.398 1180.81 424.398C1184.7 424.398 1188.35 424.962 1191.76 426.091C1195.2 427.221 1198.3 428.877 1201.06 431.06C1203.82 433.218 1206.13 435.853 1207.99 438.965C1209.85 442.052 1211.12 445.578 1211.83 449.542ZM1232.21 502.542V425.452H1241.55V459.781H1282.65V425.452H1291.99V502.542H1282.65V468.062H1241.55V502.542H1232.21ZM1315.98 502.542V425.452H1362.5V433.733H1325.31V459.781H1360.09V468.062H1325.31V494.261H1363.11V502.542H1315.98ZM1445.76 425.452V502.542H1436.73L1394.72 442.014H1393.96V502.542H1384.63V425.452H1393.66L1435.82 486.131H1436.58V425.452H1445.76ZM1511.9 444.724C1511.45 440.91 1509.62 437.949 1506.4 435.841C1503.19 433.733 1499.25 432.679 1494.58 432.679C1491.17 432.679 1488.18 433.231 1485.62 434.335C1483.09 435.439 1481.11 436.957 1479.68 438.89C1478.27 440.822 1477.57 443.018 1477.57 445.477C1477.57 447.535 1478.06 449.304 1479.04 450.785C1480.04 452.24 1481.32 453.457 1482.88 454.436C1484.43 455.39 1486.06 456.18 1487.77 456.807C1489.48 457.41 1491.04 457.899 1492.48 458.275L1500.3 460.383C1502.31 460.91 1504.55 461.638 1507.01 462.567C1509.49 463.495 1511.86 464.762 1514.12 466.368C1516.4 467.949 1518.29 469.982 1519.77 472.466C1521.25 474.951 1521.99 478 1521.99 481.614C1521.99 485.779 1520.9 489.543 1518.71 492.906C1516.55 496.269 1513.39 498.941 1509.23 500.924C1505.09 502.906 1500.05 503.898 1494.13 503.898C1488.61 503.898 1483.83 503.007 1479.79 501.225C1475.77 499.443 1472.61 496.959 1470.3 493.772C1468.02 490.585 1466.73 486.883 1466.43 482.667H1476.06C1476.31 485.578 1477.29 487.988 1479 489.895C1480.73 491.777 1482.91 493.182 1485.55 494.111C1488.21 495.014 1491.07 495.466 1494.13 495.466C1497.7 495.466 1500.89 494.889 1503.73 493.734C1506.57 492.555 1508.81 490.924 1510.47 488.841C1512.12 486.733 1512.95 484.274 1512.95 481.463C1512.95 478.903 1512.24 476.82 1510.81 475.214C1509.38 473.608 1507.49 472.303 1505.16 471.3C1502.83 470.296 1500.3 469.417 1497.59 468.665L1488.11 465.954C1482.09 464.223 1477.32 461.751 1473.8 458.539C1470.29 455.327 1468.54 451.123 1468.54 445.929C1468.54 441.613 1469.7 437.848 1472.04 434.636C1474.39 431.399 1477.56 428.89 1481.52 427.108C1485.51 425.301 1489.97 424.398 1494.88 424.398C1499.85 424.398 1504.27 425.288 1508.13 427.07C1512 428.827 1515.06 431.236 1517.32 434.297C1519.6 437.359 1520.81 440.835 1520.93 444.724H1511.9Z" fill="#FAF9F6"/>
<path d="M0 252.358H14.5839V18.064H0V252.358Z" fill="#FAF9F6"/>
<path d="M203.609 422.322C168.613 448.266 115.696 462.068 50.5025 462.271V300.547C115.785 300.333 167.089 285.837 202.99 257.437C208.313 253.226 213.234 248.746 217.751 244.021C240.338 265.674 252.25 293.587 252.25 326.958C252.25 365.755 235.43 398.731 203.607 422.322M50.5025 191.674C119.117 193.333 172.054 208.211 206.457 234.385C202.569 238.406 198.352 242.225 193.804 245.823C161.049 271.734 111.518 285.526 50.5025 285.743V191.674ZM239.39 150.43C239.39 177.94 231.463 202.515 216.234 222.899C184.329 198.027 132.908 178.804 50.5025 176.872V15.1506C170.564 18.2773 239.39 67.5332 239.39 150.43ZM227.481 232.651C245.054 209.59 254.197 181.689 254.197 150.432C254.197 107.125 236.683 70.5091 203.549 44.5359C168.06 16.7119 116.178 1.83199 49.3465 0.309325L35.9599 0V176.554L35.6946 176.549L35.6959 477.082H49.0425C119.09 477.082 174.061 462.66 212.426 434.215C248.166 407.722 267.058 370.632 267.058 326.961C267.058 304.059 261.225 265.142 227.481 232.651Z" fill="#FAF9F6"/>
<path d="M629.619 370.571C626.109 385.131 617.039 394.54 606.515 394.54C596.664 394.54 588.033 385.778 584.528 372.247L533.756 161.346C527.469 136.222 509.512 127.308 496.044 127.308C481.666 127.308 464.063 136.25 457.783 161.357L406.461 372.221C402.947 385.778 394.313 394.54 384.467 394.54C373.941 394.54 364.872 385.131 361.367 370.589L306.984 132.328H292.786L347.315 373.485C352.168 394.518 366.751 408.108 384.467 408.108C398.519 408.108 415.109 397.923 420.497 375.175L471.825 164.289C475.254 150.068 484.541 140.876 495.486 140.876C504.732 140.876 515.808 148.117 519.705 164.289L570.474 375.163C575.289 395.487 589.1 408.11 606.515 408.11C621.127 408.11 638.282 397.4 643.659 373.476L698.191 132.328H683.993L629.619 370.571Z" fill="#FAF9F6"/>
<path d="M859.801 393.427C790.786 393.427 734.64 336.778 734.64 267.147C734.64 197.828 790.786 141.43 859.799 141.43C928.51 141.43 984.41 197.828 984.41 267.147C984.41 336.778 928.51 393.427 859.801 393.427ZM859.801 127.308C782.693 127.308 719.961 190.04 719.961 267.147C719.961 344.566 782.693 407.55 859.801 407.55C936.6 407.55 999.08 344.566 999.08 267.147C999.08 188.732 937.903 127.308 859.801 127.308Z" fill="#FAF9F6"/>
<path d="M1135.27 259.006C1095.86 250.95 1058.63 243.34 1058.63 202.432C1058.63 166.477 1095.22 144.218 1129.12 144.218C1163.28 144.218 1189.46 158.621 1204.82 185.872L1205.58 187.212L1218.14 179.524L1217.45 178.276C1200.07 147.208 1168.7 130.096 1129.12 130.096C1075.81 130.096 1043.95 166.876 1043.95 202.432C1043.95 255.178 1088.19 264.111 1130.97 272.751C1171.14 280.862 1209.09 288.523 1209.09 331.311C1209.09 361.623 1182.39 392.311 1131.35 392.311C1093.34 392.311 1064.28 374.651 1047.31 341.239L1046.59 339.809L1034.02 347.486L1034.62 348.699C1052.69 385.392 1087.95 406.435 1131.35 406.435C1192.02 406.435 1223.76 368.645 1223.76 331.311C1223.76 277.095 1178.78 267.902 1135.27 259.006Z" fill="#FAF9F6"/>
<path d="M1406.58 127.308C1355.11 127.308 1310.63 157.544 1293.13 203.445V9.58932H1279V405.735H1293.13V264.359C1293.13 194.28 1341.91 141.43 1406.58 141.43C1456.08 141.43 1513.88 172.75 1513.88 261.013V407.359H1528.01V261.013C1528.01 181.04 1479.21 127.308 1406.58 127.308Z" fill="#FAF9F6"/>
</svg>
