<svg width="1529" height="478" viewBox="0 0 1529 478" fill="none" xmlns="http://www.w3.org/2000/svg">
<path d="M0 252.358H14.5839V18.064H0V252.358Z" fill="#FAF9F6"/>
<path d="M203.609 422.322C168.613 448.266 115.696 462.068 50.5025 462.271V300.547C115.785 300.333 167.089 285.837 202.99 257.437C208.313 253.226 213.234 248.746 217.751 244.021C240.338 265.674 252.25 293.587 252.25 326.958C252.25 365.755 235.43 398.731 203.607 422.322M50.5025 191.674C119.117 193.333 172.054 208.211 206.457 234.385C202.569 238.406 198.352 242.225 193.804 245.823C161.049 271.734 111.518 285.526 50.5025 285.743V191.674ZM239.39 150.43C239.39 177.94 231.463 202.515 216.234 222.899C184.329 198.027 132.908 178.804 50.5025 176.872V15.1506C170.564 18.2773 239.39 67.5332 239.39 150.43ZM227.481 232.651C245.054 209.59 254.197 181.689 254.197 150.432C254.197 107.125 236.683 70.5091 203.549 44.5359C168.06 16.7119 116.178 1.83199 49.3465 0.309325L35.9599 0V176.554L35.6946 176.549L35.6959 477.082H49.0425C119.09 477.082 174.061 462.66 212.426 434.215C248.166 407.722 267.058 370.632 267.058 326.961C267.058 304.059 261.225 265.142 227.481 232.651Z" fill="#FAF9F6"/>
<path d="M629.619 370.571C626.109 385.131 617.039 394.54 606.515 394.54C596.664 394.54 588.033 385.778 584.528 372.247L533.756 161.346C527.469 136.222 509.512 127.308 496.044 127.308C481.666 127.308 464.063 136.25 457.783 161.357L406.461 372.221C402.947 385.778 394.313 394.54 384.467 394.54C373.941 394.54 364.872 385.131 361.367 370.589L306.984 132.328H292.786L347.315 373.485C352.168 394.518 366.751 408.108 384.467 408.108C398.519 408.108 415.109 397.923 420.497 375.175L471.825 164.289C475.254 150.068 484.541 140.876 495.486 140.876C504.732 140.876 515.808 148.117 519.705 164.289L570.474 375.163C575.289 395.487 589.1 408.11 606.515 408.11C621.127 408.11 638.282 397.4 643.659 373.476L698.191 132.328H683.993L629.619 370.571Z" fill="#FAF9F6"/>
<path d="M859.801 393.427C790.786 393.427 734.64 336.778 734.64 267.147C734.64 197.828 790.786 141.43 859.799 141.43C928.51 141.43 984.41 197.828 984.41 267.147C984.41 336.778 928.51 393.427 859.801 393.427ZM859.801 127.308C782.693 127.308 719.961 190.04 719.961 267.147C719.961 344.566 782.693 407.55 859.801 407.55C936.6 407.55 999.08 344.566 999.08 267.147C999.08 188.732 937.903 127.308 859.801 127.308Z" fill="#FAF9F6"/>
<path d="M1135.27 259.006C1095.86 250.95 1058.63 243.34 1058.63 202.432C1058.63 166.477 1095.22 144.218 1129.12 144.218C1163.28 144.218 1189.46 158.621 1204.82 185.872L1205.58 187.212L1218.14 179.524L1217.45 178.276C1200.07 147.208 1168.7 130.096 1129.12 130.096C1075.81 130.096 1043.95 166.876 1043.95 202.432C1043.95 255.178 1088.19 264.111 1130.97 272.751C1171.14 280.862 1209.09 288.523 1209.09 331.311C1209.09 361.623 1182.39 392.311 1131.35 392.311C1093.34 392.311 1064.28 374.651 1047.31 341.239L1046.59 339.809L1034.02 347.486L1034.62 348.699C1052.69 385.392 1087.95 406.435 1131.35 406.435C1192.02 406.435 1223.76 368.645 1223.76 331.311C1223.76 277.095 1178.78 267.902 1135.27 259.006Z" fill="#FAF9F6"/>
<path d="M1406.58 127.308C1355.11 127.308 1310.63 157.544 1293.13 203.445V9.58932H1279V405.735H1293.13V264.359C1293.13 194.28 1341.91 141.43 1406.58 141.43C1456.08 141.43 1513.88 172.75 1513.88 261.013V407.359H1528.01V261.013C1528.01 181.04 1479.21 127.308 1406.58 127.308Z" fill="#FAF9F6"/>
</svg>
