<svg width="1529" height="558" viewBox="0 0 1529 558" fill="none" xmlns="http://www.w3.org/2000/svg">
<path d="M810.863 502.542V425.452H836.911C842.934 425.452 847.877 426.48 851.742 428.538C855.606 430.571 858.467 433.369 860.324 436.932C862.181 440.496 863.11 444.549 863.11 449.091C863.11 453.633 862.181 457.661 860.324 461.174C858.467 464.687 855.619 467.448 851.779 469.455C847.94 471.438 843.034 472.429 837.061 472.429H815.982V463.997H836.76C840.876 463.997 844.188 463.395 846.698 462.19C849.232 460.986 851.064 459.279 852.194 457.071C853.348 454.837 853.925 452.177 853.925 449.091C853.925 446.004 853.348 443.306 852.194 440.998C851.039 438.689 849.195 436.907 846.66 435.653C844.126 434.373 840.775 433.733 836.61 433.733H820.198V502.542H810.863ZM847.15 467.912L866.121 502.542H855.28L836.61 467.912H847.15ZM883.965 502.542V425.452H930.491V433.733H893.301V459.781H928.082V468.062H893.301V494.261H931.093V502.542H883.965ZM994.776 444.724C994.324 440.91 992.492 437.949 989.28 435.841C986.068 433.733 982.128 432.679 977.461 432.679C974.048 432.679 971.061 433.231 968.502 434.335C965.967 435.439 963.985 436.957 962.554 438.89C961.149 440.822 960.446 443.018 960.446 445.477C960.446 447.535 960.936 449.304 961.914 450.785C962.918 452.24 964.198 453.457 965.754 454.436C967.31 455.39 968.941 456.18 970.647 456.807C972.354 457.41 973.922 457.899 975.353 458.275L983.182 460.383C985.19 460.91 987.423 461.638 989.882 462.567C992.367 463.495 994.738 464.762 996.997 466.368C999.28 467.949 1001.16 469.982 1002.64 472.466C1004.12 474.951 1004.86 478 1004.86 481.614C1004.86 485.779 1003.77 489.543 1001.59 492.906C999.431 496.269 996.269 498.941 992.103 500.924C987.963 502.906 982.931 503.898 977.009 503.898C971.488 503.898 966.708 503.007 962.667 501.225C958.652 499.443 955.49 496.959 953.182 493.772C950.898 490.585 949.606 486.883 949.304 482.667H958.941C959.192 485.578 960.17 487.988 961.877 489.895C963.608 491.777 965.792 493.182 968.427 494.111C971.087 495.014 973.947 495.466 977.009 495.466C980.572 495.466 983.772 494.889 986.608 493.734C989.443 492.555 991.689 490.924 993.346 488.841C995.002 486.733 995.83 484.274 995.83 481.463C995.83 478.903 995.115 476.82 993.684 475.214C992.254 473.608 990.372 472.303 988.038 471.3C985.704 470.296 983.182 469.417 980.472 468.665L970.986 465.954C964.963 464.223 960.195 461.751 956.682 458.539C953.169 455.327 951.412 451.123 951.412 445.929C951.412 441.613 952.579 437.848 954.913 434.636C957.272 431.399 960.434 428.89 964.399 427.108C968.389 425.301 972.843 424.398 977.762 424.398C982.731 424.398 987.147 425.288 991.012 427.07C994.876 428.827 997.938 431.236 1000.2 434.297C1002.48 437.359 1003.68 440.835 1003.81 444.724H994.776ZM1034.85 425.452V502.542H1025.51V425.452H1034.85ZM1082.66 502.542H1058.87V425.452H1083.71C1091.19 425.452 1097.59 426.995 1102.91 430.082C1108.23 433.143 1112.3 437.547 1115.14 443.294C1117.98 449.015 1119.39 455.866 1119.39 463.846C1119.39 471.877 1117.96 478.79 1115.1 484.587C1112.24 490.359 1108.08 494.801 1102.61 497.913C1097.13 500.999 1090.48 502.542 1082.66 502.542ZM1068.2 494.261H1082.05C1088.43 494.261 1093.71 493.032 1097.9 490.572C1102.09 488.113 1105.22 484.612 1107.27 480.07C1109.33 475.528 1110.36 470.12 1110.36 463.846C1110.36 457.623 1109.34 452.265 1107.31 447.773C1105.28 443.256 1102.24 439.793 1098.2 437.384C1094.16 434.95 1089.13 433.733 1083.11 433.733H1068.2V494.261ZM1140.35 502.542V425.452H1186.88V433.733H1149.69V459.781H1184.47V468.062H1149.69V494.261H1187.48V502.542H1140.35ZM1270.14 425.452V502.542H1261.1L1219.09 442.014H1218.34V502.542H1209V425.452H1218.04L1260.2 486.131H1260.95V425.452H1270.14ZM1289.9 433.733V425.452H1347.72V433.733H1323.48V502.542H1314.14V433.733H1289.9ZM1376.76 425.452V502.542H1367.42V425.452H1376.76ZM1403.94 502.542H1394.15L1422.46 425.452H1432.1L1460.4 502.542H1450.62L1427.58 437.648H1426.98L1403.94 502.542ZM1407.55 472.429H1447V480.71H1407.55V472.429ZM1477.71 502.542V425.452H1487.05V494.261H1522.88V502.542H1477.71Z" fill="#FAF9F6"/>
<path d="M0 252.358H14.5839V18.064H0V252.358Z" fill="#FAF9F6"/>
<path d="M203.609 422.322C168.613 448.266 115.696 462.068 50.5025 462.271V300.547C115.785 300.333 167.089 285.837 202.99 257.437C208.313 253.226 213.234 248.746 217.751 244.021C240.338 265.674 252.25 293.587 252.25 326.958C252.25 365.755 235.43 398.731 203.607 422.322M50.5025 191.674C119.117 193.333 172.054 208.211 206.457 234.385C202.569 238.406 198.352 242.225 193.804 245.823C161.049 271.734 111.518 285.526 50.5025 285.743V191.674ZM239.39 150.43C239.39 177.94 231.463 202.515 216.234 222.899C184.329 198.027 132.908 178.804 50.5025 176.872V15.1506C170.564 18.2773 239.39 67.5332 239.39 150.43ZM227.481 232.651C245.054 209.59 254.197 181.689 254.197 150.432C254.197 107.125 236.683 70.5091 203.549 44.5359C168.06 16.7119 116.178 1.83199 49.3465 0.309325L35.9599 0V176.554L35.6946 176.549L35.6959 477.082H49.0425C119.09 477.082 174.061 462.66 212.426 434.215C248.166 407.722 267.058 370.632 267.058 326.961C267.058 304.059 261.225 265.142 227.481 232.651Z" fill="#FAF9F6"/>
<path d="M629.619 370.571C626.109 385.131 617.039 394.54 606.516 394.54C596.664 394.54 588.033 385.778 584.528 372.247L533.756 161.346C527.469 136.222 509.512 127.308 496.044 127.308C481.666 127.308 464.063 136.25 457.783 161.357L406.461 372.221C402.947 385.778 394.313 394.54 384.467 394.54C373.941 394.54 364.872 385.131 361.367 370.589L306.984 132.328H292.786L347.315 373.485C352.168 394.518 366.751 408.108 384.467 408.108C398.519 408.108 415.109 397.923 420.497 375.175L471.825 164.289C475.254 150.068 484.541 140.876 495.486 140.876C504.732 140.876 515.808 148.117 519.705 164.289L570.474 375.163C575.289 395.487 589.1 408.11 606.516 408.11C621.127 408.11 638.282 397.4 643.659 373.476L698.191 132.328H683.993L629.619 370.571Z" fill="#FAF9F6"/>
<path d="M859.801 393.427C790.786 393.427 734.64 336.778 734.64 267.147C734.64 197.828 790.786 141.43 859.799 141.43C928.51 141.43 984.41 197.828 984.41 267.147C984.41 336.778 928.51 393.427 859.801 393.427ZM859.801 127.308C782.693 127.308 719.961 190.04 719.961 267.147C719.961 344.566 782.693 407.55 859.801 407.55C936.6 407.55 999.08 344.566 999.08 267.147C999.08 188.732 937.903 127.308 859.801 127.308Z" fill="#FAF9F6"/>
<path d="M1135.27 259.006C1095.86 250.95 1058.63 243.34 1058.63 202.432C1058.63 166.477 1095.22 144.218 1129.12 144.218C1163.29 144.218 1189.46 158.621 1204.82 185.872L1205.58 187.212L1218.14 179.524L1217.45 178.276C1200.07 147.208 1168.7 130.096 1129.12 130.096C1075.81 130.096 1043.95 166.876 1043.95 202.432C1043.95 255.178 1088.19 264.111 1130.97 272.751C1171.14 280.862 1209.09 288.523 1209.09 331.311C1209.09 361.623 1182.39 392.311 1131.35 392.311C1093.34 392.311 1064.28 374.651 1047.31 341.239L1046.59 339.809L1034.02 347.486L1034.62 348.699C1052.69 385.392 1087.95 406.435 1131.35 406.435C1192.02 406.435 1223.76 368.645 1223.76 331.311C1223.76 277.095 1178.78 267.902 1135.27 259.006Z" fill="#FAF9F6"/>
<path d="M1406.58 127.308C1355.11 127.308 1310.63 157.544 1293.13 203.445V9.58932H1279V405.735H1293.13V264.359C1293.13 194.28 1341.91 141.43 1406.58 141.43C1456.08 141.43 1513.88 172.75 1513.88 261.013V407.359H1528.01V261.013C1528.01 181.04 1479.21 127.308 1406.58 127.308Z" fill="#FAF9F6"/>
</svg>
